<svg width="130" height="130" viewBox="0 0 130 130" fill="none" xmlns="http://www.w3.org/2000/svg"><path fill="#fff" d="M0 0h130v130H0z"/><circle cx="58.458" cy="40.369" r="6.568" fill="#E4E2E2"/><path d="M75.685 43.22c2.231-3.672 7.587-3.591 9.707.145l23.237 40.946c1.065 1.876-.291 4.204-2.448 4.204H70.668c-.001 0-.002.001-.001.002l-.001.002H24.685c-2.319 0-3.643-2.646-2.254-4.502l18.657-24.923c2.298-3.07 6.925-2.994 9.121.148l3.472 4.968c2.328 3.332 7.313 3.173 9.425-.3l12.579-20.69z" fill="#E6E5E5"/><path d="M75.685 43.22c2.231-3.672 7.587-3.591 9.707.145l23.237 40.946c1.065 1.876-.291 4.204-2.448 4.204H70.668c-.001 0-.002.001-.001.002l-.001.002H24.685c-2.319 0-3.643-2.646-2.254-4.502l18.657-24.923c2.298-3.07 6.925-2.994 9.121.148l3.472 4.968c2.328 3.332 7.313 3.173 9.425-.3l12.579-20.69z" fill="url(#EmptyStatePreFilledImage__a)"/><defs><linearGradient id="EmptyStatePreFilledImage__a" x1="65.432" y1="40.514" x2="101.204" y2="97.661" gradientUnits="userSpaceOnUse"><stop stop-color="#F0EFEF"/><stop offset="1" stop-color="#DCDBDB"/></linearGradient></defs></svg>