<svg width="96" height="96" viewBox="0 0 96 96" fill="none" xmlns="http://www.w3.org/2000/svg">
<path fill-rule="evenodd" clip-rule="evenodd" d="M0 79.6464V80.3535L15.6465 96H16.3536L0 79.6464ZM32.3536 96H31.6465L0 64.3535V63.6464L32.3536 96ZM48.3536 96H47.6465L0 48.3535V47.6464L48.3536 96ZM64.3536 96H63.6465L0 32.3535V31.6464L64.3536 96ZM80.3536 96H79.6465L0 16.3535V15.6464L80.3536 96ZM96 95.6464V96H95.6465L0 0.353536V0H0.353566L96 95.6464ZM96 79.6464V80.3535L15.6465 0H16.3536L96 79.6464ZM96 63.6464V64.3535L31.6465 0H32.3536L96 63.6464ZM96 47.6464V48.3535L47.6465 0H48.3536L96 47.6464ZM96 31.6464V32.3535L63.6465 0H64.3536L96 31.6464ZM96 15.6464V16.3535L79.6465 0H80.3536L96 15.6464ZM95.6465 0H96V0.353538L95.6465 0Z" fill="#6C737B" fill-opacity="0.8"/>
</svg>
