<svg width="23" height="23" viewBox="0 0 23 23" fill="none" xmlns="http://www.w3.org/2000/svg">
	<path fill-rule="evenodd" clip-rule="evenodd" d="M10.3171 7.47344H10.3372H12.4512H12.4713C12.8337 7.47344 13.0954 7.21171 13.0954 6.84932V2.31943C13.0954 1.95704 12.8337 1.69531 12.4713 1.69531H12.4512H10.3372H10.3171C9.95472 1.69531 9.69299 1.95704 9.69299 2.31943V6.84932C9.67286 7.23185 9.93458 7.47344 10.3171 7.47344ZM7.47837 9.88884L7.4985 9.8687L8.80713 8.21781L8.82727 8.19768C9.04873 7.91582 9.00846 7.55342 8.7266 7.31183L5.18323 4.49324C4.90137 4.27177 4.53897 4.31204 4.29738 4.5939L4.27725 4.61403L2.96861 6.26493L2.94848 6.28506C2.72702 6.56692 2.76728 6.92931 3.04914 7.1709L6.59252 9.9895C6.89452 10.211 7.25691 10.1707 7.47837 9.88884ZM7.599 13.573V13.5931C7.67953 13.9555 7.49834 14.2575 7.13595 14.338L2.72686 15.3447C2.36447 15.4252 2.06247 15.244 1.98194 14.8816V14.8615L1.51889 12.8079V12.7878C1.43836 12.4254 1.61955 12.1234 1.98194 12.0429L6.39103 11.0362C6.75342 10.9557 7.05542 11.1369 7.13595 11.4993V11.5194L7.599 13.573ZM10.5786 15.8082L10.5585 15.7881L8.66597 14.8821L8.64583 14.8619C8.30357 14.7009 7.96131 14.8217 7.82038 15.1639L5.8675 19.2308C5.70644 19.573 5.82724 19.9153 6.16949 20.0562L6.18963 20.0764L8.08211 20.9823L8.10225 21.0025C8.4445 21.1635 8.78676 21.0427 8.92769 20.7005L10.8806 16.6336C11.0215 16.3115 10.9007 15.9692 10.5786 15.8082ZM14.1422 14.9026L14.1623 14.8824C14.4844 14.7214 14.8267 14.8422 15.0079 15.1844L16.9809 19.2513C17.1218 19.5935 17.0212 19.9358 16.6789 20.0969L16.6588 20.117L14.7663 21.023L14.7462 21.0431C14.4039 21.184 14.0617 21.0834 13.9006 20.7411L11.9276 16.6743C11.7866 16.332 11.8873 15.9898 12.2296 15.8287L12.2497 15.8086L14.1422 14.9026ZM15.6524 11.4799V11.5001L15.1894 13.5536V13.5737C15.1088 13.9361 15.29 14.2381 15.6524 14.3187L20.0615 15.3253C20.4239 15.4058 20.7259 15.2246 20.8064 14.8622V14.8421L21.2695 12.7886V12.7684C21.35 12.406 21.1688 12.104 20.8064 12.0235L16.3973 11.0169C16.0551 10.9363 15.7531 11.1175 15.6524 11.4799ZM13.9608 8.21781L13.9407 8.19768C13.7193 7.89569 13.7595 7.55342 14.0414 7.31183L17.5848 4.49324C17.8867 4.27177 18.2491 4.31204 18.4706 4.5939L18.4907 4.61403L19.7994 6.26493L19.8195 6.28506C20.041 6.58705 20.0007 6.94944 19.7188 7.1709L16.1755 9.9895C15.8735 10.211 15.5111 10.1707 15.2896 9.88884L15.2695 9.8687L13.9608 8.21781Z" fill="white"/>
</svg>
